<?xml version="1.0" encoding="UTF-8" standalone="no"?><svg xmlns="http://www.w3.org/2000/svg" xmlns:xlink="http://www.w3.org/1999/xlink" contentScriptType="application/ecmascript" contentStyleType="text/css" height="227px" preserveAspectRatio="none" style="width:600px;height:227px;" version="1.1" viewBox="0 0 600 227" width="600px" zoomAndPan="magnify">
    <defs>
        <filter height="300%" id="ffh8c5vj9jf9z" width="300%" x="-1" y="-1">
            <feGaussianBlur result="blurOut" stdDeviation="2.0" />
            <feColorMatrix in="blurOut" result="blurOut2" type="matrix" values="0 0 0 0 0 0 0 0 0 0 0 0 0 0 0 0 0 0 .4 0" />
            <feOffset dx="4.0" dy="4.0" in="blurOut2" result="blurOut3" />
            <feBlend in="SourceGraphic" in2="blurOut3" mode="normal" />
        </filter>
    </defs>
    <g>
        <!--MD5=[5c040679990284a825a3903b11c133d5]
class e-->
        <rect codeLine="8" fill="#FFFFFF" filter="url(#ffh8c5vj9jf9z)" height="23.9688" id="e" style="stroke:#000000;stroke-width:1.5;" width="96" x="253.5" y="7" /><text fill="#000000" font-family="sans-serif" font-size="12" lengthAdjust="spacingAndGlyphs" textLength="90" x="256.5" y="23.1387">Empfindungen</text>
        <!--MD5=[aa862b9a7c0b577ebbd2878d73f721ed]
class pr-->
        <rect codeLine="9" fill="#FFFFFF" filter="url(#ffh8c5vj9jf9z)" height="23.9688" id="pr" style="stroke:#000000;stroke-width:1.5;" width="125" x="137" y="183" /><text fill="#000000" font-family="sans-serif" font-size="12" lengthAdjust="spacingAndGlyphs" textLength="119" x="140" y="199.1387">physikalische Reize</text>
        <!--MD5=[1b498ee27a1932cbd70f412a73764bad]
class z-->
        <rect codeLine="10" fill="#FFFFFF" filter="url(#ffh8c5vj9jf9z)" height="37.9375" id="z" style="stroke:#000000;stroke-width:1.5;" width="134" x="337.5" y="176" /><text fill="#000000" font-family="sans-serif" font-size="12" lengthAdjust="spacingAndGlyphs" textLength="88" x="360.5" y="192.1387">Zustände des</text><text fill="#000000" font-family="sans-serif" font-size="12" lengthAdjust="spacingAndGlyphs" textLength="128" x="340.5" y="206.1074">neuronalen Systems</text>
        <path d="M6,91 L6,116.1328 A0,0 0 0 0 6,116.1328 L161,116.1328 A0,0 0 0 0 161,116.1328 L161,109 L196.461,103.5 L161,101 L161,101 L151,91 L6,91 A0,0 0 0 0 6,91 " fill="#D3D3D3" filter="url(#ffh8c5vj9jf9z)" style="stroke:#808080;stroke-width:1.0;" />
        <path d="M151,91 L151,101 L161,101 L151,91 " fill="#D3D3D3" style="stroke:#808080;stroke-width:1.0;" /><text fill="#000000" font-family="sans-serif" font-size="13" lengthAdjust="spacingAndGlyphs" textLength="134" x="12" y="108.0669">äußere Psychophysik</text>
        <path d="M441.5,91 L441.5,99.5 L406.6875,103.5 L441.5,107.5 L441.5,116.1328 A0,0 0 0 0 441.5,116.1328 L591.5,116.1328 A0,0 0 0 0 591.5,116.1328 L591.5,101 L581.5,91 L441.5,91 A0,0 0 0 0 441.5,91 " fill="#D3D3D3" filter="url(#ffh8c5vj9jf9z)" style="stroke:#808080;stroke-width:1.0;" />
        <path d="M581.5,91 L581.5,101 L591.5,101 L581.5,91 " fill="#D3D3D3" style="stroke:#808080;stroke-width:1.0;" /><text fill="#000000" font-family="sans-serif" font-size="13" lengthAdjust="spacingAndGlyphs" textLength="129" x="447.5" y="108.0669">innere Psychophysik</text>
        <path d="M236,91 L236,116.1328 A0,0 0 0 0 236,116.1328 L297.361,116.1328 L300.5257,192.6462 L305.361,116.1328 L367,116.1328 A0,0 0 0 0 367,116.1328 L367,101 L357,91 L236,91 A0,0 0 0 0 236,91 " fill="#D3D3D3" filter="url(#ffh8c5vj9jf9z)" style="stroke:#808080;stroke-width:1.0;" />
        <path d="M357,91 L357,101 L367,101 L357,91 " fill="#D3D3D3" style="stroke:#808080;stroke-width:1.0;" /><text fill="#000000" font-family="sans-serif" font-size="13" lengthAdjust="spacingAndGlyphs" textLength="110" x="242" y="108.0669">Neurophysiologie</text>
        <ellipse cx="198.5" cy="103.5" fill="#000000" rx="2" ry="2" style="stroke:none;stroke-width:1.0;" />
        <ellipse cx="404.5" cy="103.5" fill="#000000" rx="2" ry="2" style="stroke:none;stroke-width:1.0;" />
        <ellipse cx="300.5" cy="195" fill="#000000" rx="2" ry="2" style="stroke:none;stroke-width:1.0;" />
        <!--MD5=[e6ef53fedbe7d9eb82f0a87f25d69189]
reverse link e to apoint11-->
        <path d="M282.6578,34.458 C256.0966,56.2484 209.8055,94.2251 200.254,102.0611 " fill="none" id="e-backto-apoint11" style="stroke:#000000;stroke-width:1.0;" />
        <polygon fill="#000000" points="286.7426,31.1068,277.2475,33.7229,282.8771,34.2782,282.3218,39.9077,286.7426,31.1068" style="stroke:#000000;stroke-width:1.0;" />
        <!--MD5=[cfb8950cee52f0ff08044dd191e5e108]
link apoint11 to pr-->
        <path d="M198.5247,105.7618 C198.6311,115.4942 199.0558,154.3569 199.3084,177.4648 " fill="none" id="apoint11-to-pr" style="stroke:#000000;stroke-width:1.0;" />
        <polygon fill="#000000" points="199.3655,182.6955,203.2668,173.6523,199.3108,177.6958,195.2673,173.7398,199.3655,182.6955" style="stroke:#000000;stroke-width:1.0;" />
        <!--MD5=[531fcaf22c95a7305c361046e0ce23b6]
reverse link e to apoint16-->
        <path d="M320.3422,34.458 C346.9034,56.2484 393.1945,94.2251 402.746,102.0611 " fill="none" id="e-backto-apoint16" style="stroke:#000000;stroke-width:1.0;" />
        <polygon fill="#000000" points="316.2574,31.1068,320.6782,39.9077,320.1229,34.2782,325.7525,33.7229,316.2574,31.1068" style="stroke:#000000;stroke-width:1.0;" />
        <!--MD5=[c9b1efdf2ea67fdb6e17f81b3b087788]
link apoint16 to z-->
        <path d="M404.5,105.7618 C404.5,114.6142 404.5,147.5672 404.5,170.8434 " fill="none" id="apoint16-to-z" style="stroke:#000000;stroke-width:1.0;" />
        <polygon fill="#000000" points="404.5,175.9439,408.5,166.9439,404.5,170.9439,400.5,166.9439,404.5,175.9439" style="stroke:#000000;stroke-width:1.0;" />
        <!--MD5=[1268265bea6ab000f87a74cf4a909fa4]
reverse link pr to apoint21-->
        <path d="M267.3178,195 C277.6809,195 288.044,195 298.4071,195 " fill="none" id="pr-backto-apoint21" style="stroke:#000000;stroke-width:1.0;" />
        <polygon fill="#000000" points="262.2305,195,271.2305,199,267.2305,195,271.2305,191,262.2305,195" style="stroke:#000000;stroke-width:1.0;" />
        <!--MD5=[3e6f503c49f84537f544c8dc05874958]
link apoint21 to z-->
        <path d="M302.5313,195 C312.3678,195 322.2043,195 332.0408,195 " fill="none" id="apoint21-to-z" style="stroke:#000000;stroke-width:1.0;" />
        <polygon fill="#000000" points="337.1847,195,328.1847,191,332.1847,195,328.1847,199,337.1847,195" style="stroke:#000000;stroke-width:1.0;" />
        <!--MD5=[eecb068550ebfe0993eb36c9f6b5e1da]
@startuml
skinparam classbackgroundcolor white
skinparam classbordercolor black
skinparam arrowcolor black
skinparam notebackgroundcolor lightgrey
skinparam notebordercolor grey
hide circle
hide empty members
class "Empfindungen" as e
class "physikalische Reize" as pr
class "Zustände des\nneuronalen Systems" as z
e <- -> pr
e <- -> z
pr <-> z
note "äußere Psychophysik" as n1
note "innere Psychophysik" as n2
note "Neurophysiologie" as n3
n1 .. (e, pr)
(e, z) .. n2
n3 .. (pr, z)
@enduml

PlantUML version 1.2020.23(Sun Dec 13 20:14:58 CET 2020)
(GPL source distribution)
Java Runtime: OpenJDK Runtime Environment
JVM: OpenJDK 64-Bit Server VM
Default Encoding: UTF-8
Language: en
Country: US
-->
    </g>
</svg>