<?xml version="1.0" encoding="UTF-8" standalone="no"?><svg xmlns="http://www.w3.org/2000/svg" xmlns:xlink="http://www.w3.org/1999/xlink" contentScriptType="application/ecmascript" contentStyleType="text/css" height="605px" preserveAspectRatio="none" style="width:346px;height:605px;" version="1.1" viewBox="0 0 346 605" width="346px" zoomAndPan="magnify">
    <defs>
        <filter height="300%" id="f1m1tyk4mr1n5l" width="300%" x="-1" y="-1">
            <feGaussianBlur result="blurOut" stdDeviation="2.0" />
            <feColorMatrix in="blurOut" result="blurOut2" type="matrix" values="0 0 0 0 0 0 0 0 0 0 0 0 0 0 0 0 0 0 .4 0" />
            <feOffset dx="4.0" dy="4.0" in="blurOut2" result="blurOut3" />
            <feBlend in="SourceGraphic" in2="blurOut3" mode="normal" />
        </filter>
    </defs>
    <g>
        <rect fill="#FFFFFF" filter="url(#f1m1tyk4mr1n5l)" height="33.9688" rx="12.5" ry="12.5" style="stroke: #000000; stroke-width: 1.5;" width="220" x="62.5" y="10" /><text fill="#000000" font-family="sans-serif" font-size="12" lengthAdjust="spacingAndGlyphs" textLength="200" x="72.5" y="31.1387">Forschungsthema und -problem</text>
        <rect fill="#FFFFFF" filter="url(#f1m1tyk4mr1n5l)" height="33.9688" rx="12.5" ry="12.5" style="stroke: #000000; stroke-width: 1.5;" width="325" x="10" y="63.9688" /><text fill="#000000" font-family="sans-serif" font-size="12" lengthAdjust="spacingAndGlyphs" textLength="305" x="20" y="85.1074">Forschungsstand und theoretischer Hintergrund</text>
        <rect fill="#FFFFFF" filter="url(#f1m1tyk4mr1n5l)" height="33.9688" rx="12.5" ry="12.5" style="stroke: #000000; stroke-width: 1.5;" width="158" x="93.5" y="117.9375" /><text fill="#000000" font-family="sans-serif" font-size="12" lengthAdjust="spacingAndGlyphs" textLength="138" x="103.5" y="139.0762">Untersuchungsdesign</text>
        <rect fill="#D3D3D3" filter="url(#f1m1tyk4mr1n5l)" height="292.8755" style="stroke: #000000; stroke-width: 2.0;" width="195" x="87" y="161.9063" />
        <path d="M101,162.9063 L101,171.2031 L91,181.2031 L87,181.2031 " fill="none" style="stroke: #000000; stroke-width: 2.0;" /><text fill="#000000" font-family="sans-serif" font-size="14" lengthAdjust="spacingAndGlyphs" textLength="0" x="94" y="175.9014" />
        <rect fill="#FFFFFF" filter="url(#f1m1tyk4mr1n5l)" height="33.9688" rx="12.5" ry="12.5" style="stroke: #000000; stroke-width: 1.5;" width="115" x="115" y="252.1719" /><text fill="#000000" font-family="sans-serif" font-size="12" lengthAdjust="spacingAndGlyphs" textLength="95" x="125" y="273.3105">Daten erheben</text>
        <rect fill="#FFFFFF" filter="url(#f1m1tyk4mr1n5l)" height="33.9688" rx="12.5" ry="12.5" style="stroke: #000000; stroke-width: 1.5;" width="135" x="105" y="306.1406" /><text fill="#000000" font-family="sans-serif" font-size="12" lengthAdjust="spacingAndGlyphs" textLength="115" x="115" y="327.2793">Daten aufbereiten</text>
        <rect fill="#FFFFFF" filter="url(#f1m1tyk4mr1n5l)" height="33.9688" rx="12.5" ry="12.5" style="stroke: #000000; stroke-width: 1.5;" width="151" x="97" y="360.1094" /><text fill="#000000" font-family="sans-serif" font-size="12" font-weight="bold" lengthAdjust="spacingAndGlyphs" textLength="131" x="107" y="381.248">Daten analysieren</text>
        <rect fill="#FFFFFF" filter="url(#f1m1tyk4mr1n5l)" height="33.9688" rx="12.5" ry="12.5" style="stroke: #000000; stroke-width: 1.5;" width="132" x="106.5" y="198.2031" /><text fill="#000000" font-family="sans-serif" font-size="12" lengthAdjust="spacingAndGlyphs" textLength="112" x="116.5" y="219.3418">Stichprobe ziehen</text>
        <polygon fill="#FFFFFF" filter="url(#f1m1tyk4mr1n5l)" points="172.5,418.7817,172.5,418.7817,184.5,430.7817,172.5,442.7817,172.5,442.7817,160.5,430.7817,172.5,418.7817" style="stroke: #000000; stroke-width: 1.5;" /><text fill="#000000" font-family="sans-serif" font-size="11" lengthAdjust="spacingAndGlyphs" textLength="36" x="184.5" y="415.3828">offene</text><text fill="#000000" font-family="sans-serif" font-size="11" lengthAdjust="spacingAndGlyphs" textLength="52" x="184.5" y="428.1875">Fragen →</text>
        <rect fill="#FFFFFF" filter="url(#f1m1tyk4mr1n5l)" height="33.9688" rx="12.5" ry="12.5" style="stroke: #000000; stroke-width: 1.5;" width="252" x="46.5" y="506.7969" /><text fill="#000000" font-family="sans-serif" font-size="12" font-weight="bold" lengthAdjust="spacingAndGlyphs" textLength="232" x="56.5" y="527.9355">Hypothesen und Theorien bilden</text>
        <rect fill="#FFFFFF" filter="url(#f1m1tyk4mr1n5l)" height="33.9688" rx="12.5" ry="12.5" style="stroke: #000000; stroke-width: 1.5;" width="168" x="88.5" y="560.7656" /><text fill="#000000" font-family="sans-serif" font-size="12" lengthAdjust="spacingAndGlyphs" textLength="148" x="98.5" y="581.9043">Ergebnise präsentieren</text>
        <line style="stroke: #000000; stroke-width: 1.5;" x1="172.5" x2="172.5" y1="43.9688" y2="63.9688" />
        <polygon fill="#000000" points="168.5,53.9688,172.5,63.9688,176.5,53.9688,172.5,57.9688" style="stroke: #000000; stroke-width: 1.0;" />
        <line style="stroke: #000000; stroke-width: 1.5;" x1="172.5" x2="172.5" y1="97.9375" y2="117.9375" />
        <polygon fill="#000000" points="168.5,107.9375,172.5,117.9375,176.5,107.9375,172.5,111.9375" style="stroke: #000000; stroke-width: 1.0;" />
        <line style="stroke: #000000; stroke-width: 1.5;" x1="172.5" x2="172.5" y1="286.1406" y2="306.1406" />
        <polygon fill="#000000" points="168.5,296.1406,172.5,306.1406,176.5,296.1406,172.5,300.1406" style="stroke: #000000; stroke-width: 1.0;" />
        <line style="stroke: #000000; stroke-width: 1.5;" x1="172.5" x2="172.5" y1="340.1094" y2="360.1094" />
        <polygon fill="#000000" points="168.5,350.1094,172.5,360.1094,176.5,350.1094,172.5,354.1094" style="stroke: #000000; stroke-width: 1.0;" />
        <line style="stroke: #000000; stroke-width: 1.5;" x1="172.5" x2="172.5" y1="232.1719" y2="252.1719" />
        <polygon fill="#000000" points="168.5,242.1719,172.5,252.1719,176.5,242.1719,172.5,246.1719" style="stroke: #000000; stroke-width: 1.0;" />
        <line style="stroke: #000000; stroke-width: 1.5;" x1="184.5" x2="260" y1="430.7817" y2="430.7817" />
        <polygon fill="#000000" points="256,330.6328,260,320.6328,264,330.6328,260,326.6328" style="stroke: #000000; stroke-width: 1.5;" />
        <line style="stroke: #000000; stroke-width: 1.5;" x1="260" x2="260" y1="215.1875" y2="430.7817" />
        <line style="stroke: #000000; stroke-width: 1.5;" x1="260" x2="238.5" y1="215.1875" y2="215.1875" />
        <polygon fill="#000000" points="248.5,211.1875,238.5,215.1875,248.5,219.1875,244.5,215.1875" style="stroke: #000000; stroke-width: 1.0;" />
        <line style="stroke: #000000; stroke-width: 1.5;" x1="172.5" x2="172.5" y1="394.0781" y2="418.7817" />
        <polygon fill="#000000" points="168.5,408.7817,172.5,418.7817,176.5,408.7817,172.5,412.7817" style="stroke: #000000; stroke-width: 1.0;" />
        <line style="stroke: #000000; stroke-width: 1.5;" x1="172.5" x2="172.5" y1="151.9063" y2="198.2031" />
        <polygon fill="#000000" points="168.5,188.2031,172.5,198.2031,176.5,188.2031,172.5,192.2031" style="stroke: #000000; stroke-width: 1.0;" />
        <line style="stroke: #000000; stroke-width: 1.5;" x1="172.5" x2="172.5" y1="442.7817" y2="506.7969" />
        <polygon fill="#000000" points="168.5,496.7969,172.5,506.7969,176.5,496.7969,172.5,500.7969" style="stroke: #000000; stroke-width: 1.0;" /><text fill="#000000" font-family="sans-serif" font-size="11" lengthAdjust="spacingAndGlyphs" textLength="60" x="176.5" y="472.4922">gefundene</text><text fill="#000000" font-family="sans-serif" font-size="11" lengthAdjust="spacingAndGlyphs" textLength="64" x="176.5" y="485.2969">Ergebnisse</text>
        <line style="stroke: #000000; stroke-width: 1.5;" x1="172.5" x2="172.5" y1="540.7656" y2="560.7656" />
        <polygon fill="#000000" points="168.5,550.7656,172.5,560.7656,176.5,550.7656,172.5,554.7656" style="stroke: #000000; stroke-width: 1.0;" />
        <!--MD5=[8b46157b0372f8511e7bf5bd350815c0]
@startuml
skinparam activity {
    backgroundcolor white
    bordercolor black
    diamondbackgroundcolor white
    diamondbordercolor black
}
skinparam arrowcolor black
skinparam partitionbackgroundcolor lightgrey


:Forschungsthema und -problem;
:Forschungsstand und theoretischer Hintergrund;
:Untersuchungsdesign;

partition "" {
    repeat :Stichprobe ziehen;
    :Daten erheben;
    :Daten aufbereiten;
    :**Daten analysieren**;
    repeat while () is (offene\nFragen →)
}
->gefundene\nErgebnisse;
:**Hypothesen und Theorien bilden**;
:Ergebnise präsentieren;
@enduml

PlantUML version 1.2020.08(Sun Apr 26 16:08:22 CEST 2020)
(GPL source distribution)
Java Runtime: OpenJDK Runtime Environment
JVM: OpenJDK 64-Bit Server VM
Java Version: 11.0.9.1+1-Ubuntu-0ubuntu1.18.04
Operating System: Linux
Default Encoding: UTF-8
Language: en
Country: US
-->
    </g>
</svg>