<?xml version="1.0" encoding="UTF-8" standalone="no"?><svg xmlns="http://www.w3.org/2000/svg" xmlns:xlink="http://www.w3.org/1999/xlink" contentScriptType="application/ecmascript" contentStyleType="text/css" height="493px" preserveAspectRatio="none" style="width:393px;height:493px;" version="1.1" viewBox="0 0 393 493" width="393px" zoomAndPan="magnify">
    <defs>
        <filter height="300%" id="f1um8m7gevss3o" width="300%" x="-1" y="-1">
            <feGaussianBlur result="blurOut" stdDeviation="2.0" />
            <feColorMatrix in="blurOut" result="blurOut2" type="matrix" values="0 0 0 0 0 0 0 0 0 0 0 0 0 0 0 0 0 0 .4 0" />
            <feOffset dx="4.0" dy="4.0" in="blurOut2" result="blurOut3" />
            <feBlend in="SourceGraphic" in2="blurOut3" mode="normal" />
        </filter>
    </defs>
    <g>
        <rect fill="#FFFFFF" filter="url(#f1um8m7gevss3o)" height="33.9688" rx="12.5" ry="12.5" style="stroke:#000000;stroke-width:1.5;" width="220" x="83.5" y="11" /><text fill="#000000" font-family="sans-serif" font-size="12" lengthAdjust="spacingAndGlyphs" textLength="200" x="93.5" y="32.1387">Forschungsthema und -problem</text>
        <rect fill="#FFFFFF" filter="url(#f1um8m7gevss3o)" height="33.9688" rx="12.5" ry="12.5" style="stroke:#000000;stroke-width:1.5;" width="365" x="11" y="64.9688" /><text fill="#000000" font-family="sans-serif" font-size="12" font-weight="bold" lengthAdjust="spacingAndGlyphs" textLength="345" x="21" y="86.1074">Forschungsstand und theoretischer Hintergrund</text>
        <rect fill="#FFFFFF" filter="url(#f1um8m7gevss3o)" height="33.9688" rx="12.5" ry="12.5" style="stroke:#000000;stroke-width:1.5;" width="158" x="114.5" y="118.9375" /><text fill="#000000" font-family="sans-serif" font-size="12" lengthAdjust="spacingAndGlyphs" textLength="138" x="124.5" y="140.0762">Untersuchungsdesign</text>
        <rect fill="#FFFFFF" filter="url(#f1um8m7gevss3o)" height="33.9688" rx="12.5" ry="12.5" style="stroke:#000000;stroke-width:1.5;" width="163" x="112" y="172.9063" /><text fill="#000000" font-family="sans-serif" font-size="12" font-weight="bold" lengthAdjust="spacingAndGlyphs" textLength="143" x="122" y="194.0449">Operationalisierung</text>
        <rect fill="#FFFFFF" filter="url(#f1um8m7gevss3o)" height="33.9688" rx="12.5" ry="12.5" style="stroke:#000000;stroke-width:1.5;" width="132" x="127.5" y="226.875" /><text fill="#000000" font-family="sans-serif" font-size="12" lengthAdjust="spacingAndGlyphs" textLength="112" x="137.5" y="248.0137">Stichprobe ziehen</text>
        <rect fill="#FFFFFF" filter="url(#f1um8m7gevss3o)" height="33.9688" rx="12.5" ry="12.5" style="stroke:#000000;stroke-width:1.5;" width="115" x="136" y="280.8438" /><text fill="#000000" font-family="sans-serif" font-size="12" lengthAdjust="spacingAndGlyphs" textLength="95" x="146" y="301.9824">Daten erheben</text>
        <rect fill="#FFFFFF" filter="url(#f1um8m7gevss3o)" height="33.9688" rx="12.5" ry="12.5" style="stroke:#000000;stroke-width:1.5;" width="135" x="126" y="334.8125" /><text fill="#000000" font-family="sans-serif" font-size="12" lengthAdjust="spacingAndGlyphs" textLength="115" x="136" y="355.9512">Daten aufbereiten</text>
        <rect fill="#FFFFFF" filter="url(#f1um8m7gevss3o)" height="33.9688" rx="12.5" ry="12.5" style="stroke:#000000;stroke-width:1.5;" width="134" x="126.5" y="388.7813" /><text fill="#000000" font-family="sans-serif" font-size="12" lengthAdjust="spacingAndGlyphs" textLength="114" x="136.5" y="409.9199">Daten analysieren</text>
        <rect fill="#FFFFFF" filter="url(#f1um8m7gevss3o)" height="33.9688" rx="12.5" ry="12.5" style="stroke:#000000;stroke-width:1.5;" width="175" x="106" y="442.75" /><text fill="#000000" font-family="sans-serif" font-size="12" lengthAdjust="spacingAndGlyphs" textLength="155" x="116" y="463.8887">Ergebnisse präsentieren</text>
        <line style="stroke:#000000;stroke-width:1.5;" x1="193.5" x2="193.5" y1="44.9688" y2="64.9688" />
        <polygon fill="#000000" points="189.5,54.9688,193.5,64.9688,197.5,54.9688,193.5,58.9688" style="stroke:#000000;stroke-width:1.0;" />
        <line style="stroke:#000000;stroke-width:1.5;" x1="193.5" x2="193.5" y1="98.9375" y2="118.9375" />
        <polygon fill="#000000" points="189.5,108.9375,193.5,118.9375,197.5,108.9375,193.5,112.9375" style="stroke:#000000;stroke-width:1.0;" />
        <line style="stroke:#000000;stroke-width:1.5;" x1="193.5" x2="193.5" y1="152.9063" y2="172.9063" />
        <polygon fill="#000000" points="189.5,162.9063,193.5,172.9063,197.5,162.9063,193.5,166.9063" style="stroke:#000000;stroke-width:1.0;" />
        <line style="stroke:#000000;stroke-width:1.5;" x1="193.5" x2="193.5" y1="206.875" y2="226.875" />
        <polygon fill="#000000" points="189.5,216.875,193.5,226.875,197.5,216.875,193.5,220.875" style="stroke:#000000;stroke-width:1.0;" />
        <line style="stroke:#000000;stroke-width:1.5;" x1="193.5" x2="193.5" y1="260.8438" y2="280.8438" />
        <polygon fill="#000000" points="189.5,270.8438,193.5,280.8438,197.5,270.8438,193.5,274.8438" style="stroke:#000000;stroke-width:1.0;" />
        <line style="stroke:#000000;stroke-width:1.5;" x1="193.5" x2="193.5" y1="314.8125" y2="334.8125" />
        <polygon fill="#000000" points="189.5,324.8125,193.5,334.8125,197.5,324.8125,193.5,328.8125" style="stroke:#000000;stroke-width:1.0;" />
        <line style="stroke:#000000;stroke-width:1.5;" x1="193.5" x2="193.5" y1="368.7813" y2="388.7813" />
        <polygon fill="#000000" points="189.5,378.7813,193.5,388.7813,197.5,378.7813,193.5,382.7813" style="stroke:#000000;stroke-width:1.0;" />
        <line style="stroke:#000000;stroke-width:1.5;" x1="193.5" x2="193.5" y1="422.75" y2="442.75" />
        <polygon fill="#000000" points="189.5,432.75,193.5,442.75,197.5,432.75,193.5,436.75" style="stroke:#000000;stroke-width:1.0;" />
        <!--MD5=[31cb5b6ba875ed837a210d6cb77318d9]
@startuml
skinparam activitybackgroundcolor white
skinparam activitybordercolor black
skinparam arrowcolor black
:Forschungsthema und -problem;
:**Forschungsstand und theoretischer Hintergrund**;
:Untersuchungsdesign;
:**Operationalisierung**;
:Stichprobe ziehen;
:Daten erheben;
:Daten aufbereiten;
:Daten analysieren;
:Ergebnisse präsentieren;
@enduml

PlantUML version 1.2020.23(Sun Dec 13 20:14:58 CET 2020)
(GPL source distribution)
Java Runtime: OpenJDK Runtime Environment
JVM: OpenJDK 64-Bit Server VM
Default Encoding: UTF-8
Language: en
Country: US
-->
    </g>
</svg>