<?xml version="1.0" encoding="UTF-8" standalone="no"?><svg xmlns="http://www.w3.org/2000/svg" xmlns:xlink="http://www.w3.org/1999/xlink" contentScriptType="application/ecmascript" contentStyleType="text/css" height="486px" preserveAspectRatio="none" style="width:386px;height:486px;" version="1.1" viewBox="0 0 386 486" width="386px" zoomAndPan="magnify">
    <defs>
        <filter height="300%" id="f2lozcxdg1fcl" width="300%" x="-1" y="-1">
            <feGaussianBlur result="blurOut" stdDeviation="2.0" />
            <feColorMatrix in="blurOut" result="blurOut2" type="matrix" values="0 0 0 0 0 0 0 0 0 0 0 0 0 0 0 0 0 0 .4 0" />
            <feOffset dx="4.0" dy="4.0" in="blurOut2" result="blurOut3" />
            <feBlend in="SourceGraphic" in2="blurOut3" mode="normal" />
        </filter>
    </defs>
    <g>
        <rect fill="#FFFFFF" filter="url(#f2lozcxdg1fcl)" height="33.9688" rx="12.5" ry="12.5" style="stroke: #000000; stroke-width: 1.5;" width="220" x="82.5" y="10" /><text fill="#000000" font-family="sans-serif" font-size="12" lengthAdjust="spacingAndGlyphs" textLength="200" x="92.5" y="31.1387">Forschungsthema und -problem</text>
        <rect fill="#FFFFFF" filter="url(#f2lozcxdg1fcl)" height="33.9688" rx="12.5" ry="12.5" style="stroke: #000000; stroke-width: 1.5;" width="365" x="10" y="63.9688" /><text fill="#000000" font-family="sans-serif" font-size="12" font-weight="bold" lengthAdjust="spacingAndGlyphs" textLength="345" x="20" y="85.1074">Forschungsstand und theoretischer Hintergrund</text>
        <rect fill="#FFFFFF" filter="url(#f2lozcxdg1fcl)" height="33.9688" rx="12.5" ry="12.5" style="stroke: #000000; stroke-width: 1.5;" width="158" x="113.5" y="117.9375" /><text fill="#000000" font-family="sans-serif" font-size="12" lengthAdjust="spacingAndGlyphs" textLength="138" x="123.5" y="139.0762">Untersuchungsdesign</text>
        <rect fill="#FFFFFF" filter="url(#f2lozcxdg1fcl)" height="33.9688" rx="12.5" ry="12.5" style="stroke: #000000; stroke-width: 1.5;" width="163" x="111" y="171.9063" /><text fill="#000000" font-family="sans-serif" font-size="12" font-weight="bold" lengthAdjust="spacingAndGlyphs" textLength="143" x="121" y="193.0449">Operationalisierung</text>
        <rect fill="#FFFFFF" filter="url(#f2lozcxdg1fcl)" height="33.9688" rx="12.5" ry="12.5" style="stroke: #000000; stroke-width: 1.5;" width="132" x="126.5" y="225.875" /><text fill="#000000" font-family="sans-serif" font-size="12" lengthAdjust="spacingAndGlyphs" textLength="112" x="136.5" y="247.0137">Stichprobe ziehen</text>
        <rect fill="#FFFFFF" filter="url(#f2lozcxdg1fcl)" height="33.9688" rx="12.5" ry="12.5" style="stroke: #000000; stroke-width: 1.5;" width="115" x="135" y="279.8438" /><text fill="#000000" font-family="sans-serif" font-size="12" lengthAdjust="spacingAndGlyphs" textLength="95" x="145" y="300.9824">Daten erheben</text>
        <rect fill="#FFFFFF" filter="url(#f2lozcxdg1fcl)" height="33.9688" rx="12.5" ry="12.5" style="stroke: #000000; stroke-width: 1.5;" width="135" x="125" y="333.8125" /><text fill="#000000" font-family="sans-serif" font-size="12" lengthAdjust="spacingAndGlyphs" textLength="115" x="135" y="354.9512">Daten aufbereiten</text>
        <rect fill="#FFFFFF" filter="url(#f2lozcxdg1fcl)" height="33.9688" rx="12.5" ry="12.5" style="stroke: #000000; stroke-width: 1.5;" width="134" x="125.5" y="387.7813" /><text fill="#000000" font-family="sans-serif" font-size="12" lengthAdjust="spacingAndGlyphs" textLength="114" x="135.5" y="408.9199">Daten analysieren</text>
        <rect fill="#FFFFFF" filter="url(#f2lozcxdg1fcl)" height="33.9688" rx="12.5" ry="12.5" style="stroke: #000000; stroke-width: 1.5;" width="168" x="108.5" y="441.75" /><text fill="#000000" font-family="sans-serif" font-size="12" lengthAdjust="spacingAndGlyphs" textLength="148" x="118.5" y="462.8887">Ergebnise präsentieren</text>
        <line style="stroke: #000000; stroke-width: 1.5;" x1="192.5" x2="192.5" y1="43.9688" y2="63.9688" />
        <polygon fill="#000000" points="188.5,53.9688,192.5,63.9688,196.5,53.9688,192.5,57.9688" style="stroke: #000000; stroke-width: 1.0;" />
        <line style="stroke: #000000; stroke-width: 1.5;" x1="192.5" x2="192.5" y1="97.9375" y2="117.9375" />
        <polygon fill="#000000" points="188.5,107.9375,192.5,117.9375,196.5,107.9375,192.5,111.9375" style="stroke: #000000; stroke-width: 1.0;" />
        <line style="stroke: #000000; stroke-width: 1.5;" x1="192.5" x2="192.5" y1="151.9063" y2="171.9063" />
        <polygon fill="#000000" points="188.5,161.9063,192.5,171.9063,196.5,161.9063,192.5,165.9063" style="stroke: #000000; stroke-width: 1.0;" />
        <line style="stroke: #000000; stroke-width: 1.5;" x1="192.5" x2="192.5" y1="205.875" y2="225.875" />
        <polygon fill="#000000" points="188.5,215.875,192.5,225.875,196.5,215.875,192.5,219.875" style="stroke: #000000; stroke-width: 1.0;" />
        <line style="stroke: #000000; stroke-width: 1.5;" x1="192.5" x2="192.5" y1="259.8438" y2="279.8438" />
        <polygon fill="#000000" points="188.5,269.8438,192.5,279.8438,196.5,269.8438,192.5,273.8438" style="stroke: #000000; stroke-width: 1.0;" />
        <line style="stroke: #000000; stroke-width: 1.5;" x1="192.5" x2="192.5" y1="313.8125" y2="333.8125" />
        <polygon fill="#000000" points="188.5,323.8125,192.5,333.8125,196.5,323.8125,192.5,327.8125" style="stroke: #000000; stroke-width: 1.0;" />
        <line style="stroke: #000000; stroke-width: 1.5;" x1="192.5" x2="192.5" y1="367.7813" y2="387.7813" />
        <polygon fill="#000000" points="188.5,377.7813,192.5,387.7813,196.5,377.7813,192.5,381.7813" style="stroke: #000000; stroke-width: 1.0;" />
        <line style="stroke: #000000; stroke-width: 1.5;" x1="192.5" x2="192.5" y1="421.75" y2="441.75" />
        <polygon fill="#000000" points="188.5,431.75,192.5,441.75,196.5,431.75,192.5,435.75" style="stroke: #000000; stroke-width: 1.0;" />
        <!--MD5=[19501303648c748d4179d32d4f163645]
@startuml
skinparam activitybackgroundcolor white
skinparam activitybordercolor black
skinparam arrowcolor black
:Forschungsthema und -problem;
:**Forschungsstand und theoretischer Hintergrund**;
:Untersuchungsdesign;
:**Operationalisierung**;
:Stichprobe ziehen;
:Daten erheben;
:Daten aufbereiten;
:Daten analysieren;
:Ergebnise präsentieren;
@enduml

PlantUML version 1.2020.08(Sun Apr 26 16:08:22 CEST 2020)
(GPL source distribution)
Java Runtime: OpenJDK Runtime Environment
JVM: OpenJDK 64-Bit Server VM
Java Version: 11.0.9.1+1-Ubuntu-0ubuntu1.18.04
Operating System: Linux
Default Encoding: UTF-8
Language: en
Country: US
-->
    </g>
</svg>